<!-- Generated by IcoMoon.io -->
<svg version="1.1" xmlns="http://www.w3.org/2000/svg" width="1024" height="1024" viewBox="0 0 1024 1024">
<g id="icomoon-ignore">
</g>
<path fill="none" stroke-linejoin="miter" stroke-linecap="butt" stroke-miterlimit="10" stroke-width="64" stroke="#000" d="M800 640c0 176.739-111.261 288-288 288s-288-111.261-288-288c0-189.661 206.461-445.7 269.779-519.76 2.253-2.631 5.050-4.744 8.195-6.192 3.149-1.448 6.573-2.198 10.035-2.198 3.466 0 6.886 0.75 10.035 2.198 3.146 1.448 5.942 3.561 8.195 6.192 63.299 74.060 269.76 330.1 269.76 519.76z"></path>
<path fill="none" stroke-linejoin="round" stroke-linecap="round" stroke-miterlimit="4" stroke-width="64" stroke="#000" d="M688 656c0 38.192-15.171 74.819-42.176 101.824s-63.632 42.176-101.824 42.176"></path>
</svg>
